<mxfile host="app.diagrams.net" modified="2023-05-17T21:30:31.948Z" agent="Mozilla/5.0 (Windows NT 10.0; Win64; x64) AppleWebKit/537.36 (KHTML, like Gecko) Chrome/109.0.0.0 Safari/537.36" etag="SonkmPvrQANsqjKsmNXU" version="21.2.9" type="github">
  <diagram name="Page-1" id="74e2e168-ea6b-b213-b513-2b3c1d86103e">
    <mxGraphModel dx="794" dy="480" grid="1" gridSize="10" guides="1" tooltips="1" connect="1" arrows="1" fold="1" page="1" pageScale="1" pageWidth="1100" pageHeight="850" background="none" math="0" shadow="0">
      <root>
        <mxCell id="0" />
        <mxCell id="1" parent="0" />
        <mxCell id="Epcr0NqpTSliN9Ygm-L9-17" value="" style="edgeStyle=orthogonalEdgeStyle;rounded=0;orthogonalLoop=1;jettySize=auto;html=1;" edge="1" parent="1" source="Epcr0NqpTSliN9Ygm-L9-2" target="Epcr0NqpTSliN9Ygm-L9-5">
          <mxGeometry relative="1" as="geometry" />
        </mxCell>
        <mxCell id="Epcr0NqpTSliN9Ygm-L9-2" value="inicio" style="ellipse;whiteSpace=wrap;html=1;" vertex="1" parent="1">
          <mxGeometry x="60" y="10" width="80" height="50" as="geometry" />
        </mxCell>
        <mxCell id="Epcr0NqpTSliN9Ygm-L9-18" value="" style="edgeStyle=orthogonalEdgeStyle;rounded=0;orthogonalLoop=1;jettySize=auto;html=1;" edge="1" parent="1" source="Epcr0NqpTSliN9Ygm-L9-5" target="Epcr0NqpTSliN9Ygm-L9-6">
          <mxGeometry relative="1" as="geometry" />
        </mxCell>
        <mxCell id="Epcr0NqpTSliN9Ygm-L9-5" value="quantidade&amp;nbsp;&lt;br&gt;a ser trabalhada" style="html=1;strokeWidth=2;shape=manualInput;whiteSpace=wrap;rounded=1;size=26;arcSize=11;" vertex="1" parent="1">
          <mxGeometry x="50" y="100" width="100" height="70" as="geometry" />
        </mxCell>
        <mxCell id="Epcr0NqpTSliN9Ygm-L9-19" value="sim" style="edgeStyle=orthogonalEdgeStyle;rounded=0;orthogonalLoop=1;jettySize=auto;html=1;" edge="1" parent="1" source="Epcr0NqpTSliN9Ygm-L9-6" target="Epcr0NqpTSliN9Ygm-L9-8">
          <mxGeometry relative="1" as="geometry" />
        </mxCell>
        <mxCell id="Epcr0NqpTSliN9Ygm-L9-22" value="não" style="edgeStyle=orthogonalEdgeStyle;rounded=0;orthogonalLoop=1;jettySize=auto;html=1;" edge="1" parent="1" source="Epcr0NqpTSliN9Ygm-L9-6" target="Epcr0NqpTSliN9Ygm-L9-7">
          <mxGeometry relative="1" as="geometry" />
        </mxCell>
        <mxCell id="Epcr0NqpTSliN9Ygm-L9-6" value="entrada de peças" style="strokeWidth=2;html=1;shape=mxgraph.flowchart.decision;whiteSpace=wrap;" vertex="1" parent="1">
          <mxGeometry x="60" y="250" width="80" height="90" as="geometry" />
        </mxCell>
        <mxCell id="Epcr0NqpTSliN9Ygm-L9-23" value="" style="edgeStyle=orthogonalEdgeStyle;rounded=0;orthogonalLoop=1;jettySize=auto;html=1;" edge="1" parent="1" source="Epcr0NqpTSliN9Ygm-L9-7" target="Epcr0NqpTSliN9Ygm-L9-10">
          <mxGeometry relative="1" as="geometry" />
        </mxCell>
        <mxCell id="Epcr0NqpTSliN9Ygm-L9-7" value="subtrair quantidade inserida da quantidade anterior" style="rounded=1;whiteSpace=wrap;html=1;" vertex="1" parent="1">
          <mxGeometry x="250" y="270" width="110" height="50" as="geometry" />
        </mxCell>
        <mxCell id="Epcr0NqpTSliN9Ygm-L9-20" value="" style="edgeStyle=orthogonalEdgeStyle;rounded=0;orthogonalLoop=1;jettySize=auto;html=1;" edge="1" parent="1" source="Epcr0NqpTSliN9Ygm-L9-8" target="Epcr0NqpTSliN9Ygm-L9-9">
          <mxGeometry relative="1" as="geometry" />
        </mxCell>
        <mxCell id="Epcr0NqpTSliN9Ygm-L9-28" value="" style="edgeStyle=orthogonalEdgeStyle;rounded=0;orthogonalLoop=1;jettySize=auto;html=1;" edge="1" parent="1" source="Epcr0NqpTSliN9Ygm-L9-8" target="Epcr0NqpTSliN9Ygm-L9-10">
          <mxGeometry relative="1" as="geometry" />
        </mxCell>
        <mxCell id="Epcr0NqpTSliN9Ygm-L9-8" value="adicionar quantidade inserida da quantidade anterior" style="rounded=1;whiteSpace=wrap;html=1;" vertex="1" parent="1">
          <mxGeometry x="40" y="380" width="120" height="60" as="geometry" />
        </mxCell>
        <mxCell id="Epcr0NqpTSliN9Ygm-L9-25" value="sim" style="edgeStyle=orthogonalEdgeStyle;rounded=0;orthogonalLoop=1;jettySize=auto;html=1;entryX=0;entryY=0.5;entryDx=0;entryDy=0;" edge="1" parent="1" source="Epcr0NqpTSliN9Ygm-L9-9" target="Epcr0NqpTSliN9Ygm-L9-8">
          <mxGeometry x="-0.6667" relative="1" as="geometry">
            <Array as="points">
              <mxPoint x="20" y="530" />
              <mxPoint x="20" y="410" />
            </Array>
            <mxPoint as="offset" />
          </mxGeometry>
        </mxCell>
        <mxCell id="Epcr0NqpTSliN9Ygm-L9-27" value="não" style="edgeStyle=orthogonalEdgeStyle;rounded=0;orthogonalLoop=1;jettySize=auto;html=1;" edge="1" parent="1" source="Epcr0NqpTSliN9Ygm-L9-9" target="Epcr0NqpTSliN9Ygm-L9-11">
          <mxGeometry relative="1" as="geometry" />
        </mxCell>
        <mxCell id="Epcr0NqpTSliN9Ygm-L9-9" value="adicionar novamente" style="rhombus;whiteSpace=wrap;html=1;" vertex="1" parent="1">
          <mxGeometry x="60" y="490" width="80" height="80" as="geometry" />
        </mxCell>
        <mxCell id="Epcr0NqpTSliN9Ygm-L9-24" value="sim" style="edgeStyle=orthogonalEdgeStyle;rounded=0;orthogonalLoop=1;jettySize=auto;html=1;entryX=1;entryY=0.5;entryDx=0;entryDy=0;" edge="1" parent="1" source="Epcr0NqpTSliN9Ygm-L9-10" target="Epcr0NqpTSliN9Ygm-L9-7">
          <mxGeometry x="-0.7059" relative="1" as="geometry">
            <Array as="points">
              <mxPoint x="380" y="410" />
              <mxPoint x="380" y="295" />
            </Array>
            <mxPoint as="offset" />
          </mxGeometry>
        </mxCell>
        <mxCell id="Epcr0NqpTSliN9Ygm-L9-29" value="não" style="edgeStyle=orthogonalEdgeStyle;rounded=0;orthogonalLoop=1;jettySize=auto;html=1;" edge="1" parent="1" source="Epcr0NqpTSliN9Ygm-L9-10" target="Epcr0NqpTSliN9Ygm-L9-11">
          <mxGeometry relative="1" as="geometry" />
        </mxCell>
        <mxCell id="Epcr0NqpTSliN9Ygm-L9-10" value="subtrair novamente" style="rhombus;whiteSpace=wrap;html=1;" vertex="1" parent="1">
          <mxGeometry x="265" y="370" width="80" height="80" as="geometry" />
        </mxCell>
        <mxCell id="Epcr0NqpTSliN9Ygm-L9-30" value="" style="edgeStyle=orthogonalEdgeStyle;rounded=0;orthogonalLoop=1;jettySize=auto;html=1;" edge="1" parent="1" source="Epcr0NqpTSliN9Ygm-L9-11" target="Epcr0NqpTSliN9Ygm-L9-12">
          <mxGeometry relative="1" as="geometry" />
        </mxCell>
        <mxCell id="Epcr0NqpTSliN9Ygm-L9-11" value="exibir quantidade que tenho no estoque" style="shape=display;whiteSpace=wrap;html=1;size=0.21428571428571427;" vertex="1" parent="1">
          <mxGeometry x="235" y="495" width="140" height="70" as="geometry" />
        </mxCell>
        <mxCell id="Epcr0NqpTSliN9Ygm-L9-12" value="fim" style="ellipse;whiteSpace=wrap;html=1;" vertex="1" parent="1">
          <mxGeometry x="265" y="630" width="80" height="60" as="geometry" />
        </mxCell>
      </root>
    </mxGraphModel>
  </diagram>
</mxfile>
